<svg width="45" height="45" viewBox="0 0 45 45" fill="none" xmlns="http://www.w3.org/2000/svg">
<path d="M22.5005 0C10.0745 0 0.000999451 10.0738 0.000999451 22.4998C0.000999451 34.9254 10.0745 45 22.5005 45C34.9264 45 45.0007 34.9254 45.0007 22.4998C45.0007 10.0738 34.9264 0 22.5005 0ZM22.5009 7.90298L35.8155 16.2056H9.18634L22.5009 7.90298ZM35.9814 29.4637H35.9801C35.9801 30.7955 34.9008 31.8746 33.5692 31.8746H11.4326C10.1009 31.8746 9.02179 30.7953 9.02179 29.4637V16.7339C9.02179 16.593 9.03619 16.4561 9.05959 16.3215L21.7809 24.254C21.7965 24.2638 21.8132 24.2704 21.8292 24.2794C21.846 24.2887 21.8631 24.2977 21.8802 24.3062C21.9701 24.3526 22.0626 24.3899 22.1573 24.4144C22.167 24.4171 22.1768 24.4183 22.1865 24.4205C22.2903 24.445 22.3955 24.4603 22.5005 24.4603H22.5012C22.502 24.4603 22.5027 24.4603 22.5027 24.4603C22.6077 24.4603 22.7129 24.4454 22.8167 24.4205C22.8264 24.4181 22.8362 24.4171 22.8459 24.4144C22.9404 24.3899 23.0327 24.3526 23.123 24.3062C23.1401 24.2977 23.1572 24.2887 23.174 24.2794C23.1899 24.2704 23.2067 24.2638 23.2223 24.254L35.9436 16.3215C35.967 16.4561 35.9814 16.5927 35.9814 16.7339V29.4637Z" fill="#BA281C"/>
</svg>
