<svg width="45" height="45" viewBox="0 0 45 45" fill="none" xmlns="http://www.w3.org/2000/svg">
<path fill-rule="evenodd" clip-rule="evenodd" d="M22.5 45C34.9264 45 45 34.9264 45 22.5C45 10.0736 34.9264 0 22.5 0C10.0736 0 0 10.0736 0 22.5C0 34.9264 10.0736 45 22.5 45ZM33.713 24.8655L35.3527 31.5507C35.3834 31.6539 35.3999 31.7634 35.4 31.8768C35.4 32.4971 34.9067 33.0001 34.298 33.0001H10.1021C9.76266 33.0001 9.44226 32.8407 9.23346 32.5681C9.0246 32.2956 8.95062 31.94 9.03288 31.6045L10.6859 24.8653C10.7114 24.7611 10.7516 24.6638 10.8026 24.5743C10.7086 24.3093 10.6572 24.0237 10.6572 23.7261V12.7062C10.6572 11.3243 11.7601 10.2001 13.1161 10.2001H31.2831C32.6389 10.2001 33.7418 11.3244 33.7418 12.7062V23.7262C33.7418 24.0237 33.6903 24.3093 33.5966 24.5744C33.6474 24.6638 33.6875 24.7612 33.713 24.8655ZM19.4076 31.244H24.9922C25.1123 31.244 25.2097 31.1448 25.2096 31.0223C25.2096 31.0019 25.2068 30.9821 25.2017 30.9632L24.7702 28.5217C24.7516 28.4161 24.6615 28.3393 24.5562 28.3393H19.8427C19.7375 28.3393 19.6473 28.416 19.6286 28.5217L19.1935 30.9829C19.182 31.0477 19.1994 31.1142 19.2407 31.1645C19.2819 31.2149 19.3431 31.244 19.4076 31.244ZM31.4118 24.0147C31.5191 23.9645 31.5942 23.8543 31.5942 23.7262L31.5942 12.7062C31.5942 12.5312 31.4545 12.3889 31.2829 12.3889H13.116C12.9443 12.3889 12.8045 12.5312 12.8045 12.7062V23.7262C12.8045 23.8543 12.8796 23.9646 12.9871 24.0147H31.4118ZM23.4866 17.5605L22.7983 17.7518L24.4042 19.3885C24.5315 19.5184 24.5315 19.7289 24.4042 19.8588L24.0004 20.2703C23.873 20.4002 23.6665 20.4002 23.5392 20.2703L21.9332 18.6336L21.7455 19.3351C21.7083 19.4741 21.5877 19.5729 21.4464 19.5798C21.3053 19.5867 21.1758 19.5002 21.1257 19.3655L19.9218 16.1305C19.8763 16.0081 19.9054 15.87 19.9962 15.7775C20.087 15.685 20.2226 15.6553 20.3426 15.7017L23.5165 16.9287C23.6485 16.9798 23.7334 17.1118 23.7266 17.2557C23.7199 17.3996 23.6229 17.5226 23.4866 17.5605Z" fill="#BA281C"/>
</svg>
