<svg width="45" height="45" viewBox="0 0 45 45" fill="none" xmlns="http://www.w3.org/2000/svg">
<path d="M38.4072 6.58721C29.6191 -2.19825 15.3728 -2.19614 6.58733 6.59204C-2.19813 15.3802 -2.19602 29.6264 6.59217 38.4119C15.3804 47.1973 29.6265 47.1952 38.412 38.407C42.6313 34.1864 45.001 28.4626 44.9997 22.4947C44.9984 16.5278 42.6271 10.8058 38.4072 6.58721ZM34.0751 31.3418C34.0742 31.3427 34.0732 31.3438 34.0721 31.3448V31.3373L32.9321 32.4698C31.4577 33.9628 29.3105 34.577 27.2696 34.0898C25.2134 33.5394 23.2587 32.6633 21.4796 31.4948C19.8267 30.4384 18.295 29.2036 16.9121 27.8123C15.6397 26.5492 14.4966 25.1623 13.4996 23.6723C12.409 22.069 11.5459 20.3224 10.9346 18.4822C10.2338 16.3205 10.8145 13.9484 12.4346 12.3548L13.7696 11.0198C14.1407 10.647 14.7438 10.6456 15.1166 11.0168C15.1176 11.0178 15.1186 11.0187 15.1196 11.0198L19.3346 15.2348C19.7074 15.6059 19.7087 16.209 19.3375 16.5818C19.3366 16.5827 19.3356 16.5837 19.3346 16.5848L16.8596 19.0598C16.1494 19.7622 16.0601 20.8784 16.6496 21.6848C17.5447 22.9133 18.5354 24.0694 19.6121 25.1423C20.8126 26.348 22.1177 27.4448 23.5121 28.4199C24.3178 28.9818 25.4101 28.8871 26.107 28.1949L28.4995 25.7649C28.8707 25.392 29.4738 25.3907 29.8465 25.7619C29.8475 25.7628 29.8485 25.7638 29.8495 25.7649L34.072 29.9949C34.445 30.3659 34.4463 30.9689 34.0751 31.3418Z" fill="#BA281C"/>
</svg>
