<svg width="127" height="127" viewBox="0 0 127 127" fill="none" xmlns="http://www.w3.org/2000/svg">
<g filter="url(#filter0_d)">
<rect x="4.00006" width="119" height="119" rx="59.5" fill="#6492BD"/>
<rect x="4.50006" y="0.5" width="118" height="118" rx="59" stroke="white"/>
</g>
<g clip-path="url(#clip0)">
<path d="M47.0953 71.9933C46.5991 71.5776 45.86 71.643 45.4445 72.1392L42.5142 75.6377L41.4552 74.7404C40.9614 74.3221 40.222 74.3832 39.8036 74.877C39.3852 75.3709 39.4464 76.1103 39.9402 76.5287L41.8984 78.1877C42.1109 78.3677 42.3796 78.4655 42.6559 78.4655C42.6892 78.4655 42.7225 78.464 42.7559 78.4611C43.0666 78.4345 43.3541 78.2852 43.5544 78.046L47.2414 73.6441C47.6568 73.1479 47.5914 72.409 47.0953 71.9933Z" fill="white"/>
<path d="M91.5183 53.9192H89.834C88.4233 53.8541 87.2888 52.6525 85.9762 51.2622C85.0991 50.3333 84.1599 49.3386 83.0286 48.6014V38.5837C83.0286 36.8192 81.5931 35.3837 79.8287 35.3837H41.6052C39.8407 35.3837 38.4053 36.8192 38.4053 38.5837V46.7128C38.4053 47.36 38.9299 47.8846 39.5771 47.8846C40.2244 47.8846 40.749 47.36 40.749 46.7128V38.5837C40.749 38.1196 41.1411 37.7274 41.6052 37.7274H54.573V48.0958C54.573 48.5218 54.8042 48.9143 55.1768 49.1209C55.3537 49.2189 55.5494 49.2677 55.7448 49.2677C55.9608 49.2677 56.1763 49.208 56.366 49.0896L60.7183 46.3693L65.0675 49.0894C65.4288 49.3153 65.8841 49.3275 66.2569 49.121C66.6296 48.9145 66.8608 48.522 66.8608 48.0959V37.7274H79.8288C80.2929 37.7274 80.685 38.1195 80.685 38.5837V47.6078C80.3038 47.528 79.9036 47.4801 79.4804 47.4726C79.4735 47.4725 79.4667 47.4725 79.4598 47.4725H76.491H74.1851H72.857C72.8509 47.4725 72.8449 47.4725 72.8388 47.4726C71.4261 47.4945 70.7003 48.135 70.34 48.6683C69.7809 49.4961 69.7291 50.6172 70.1937 51.8239C70.3018 52.1056 70.4337 52.3721 70.5855 52.6225H61.6993C59.7901 52.6225 58.2368 54.1759 58.2368 56.0851C58.2368 56.4776 58.3024 56.8552 58.423 57.2073H58.112C56.2028 57.2073 54.6494 58.7606 54.6494 60.6699C54.6494 62.5793 56.2028 64.1326 58.112 64.1326H58.4222C58.3021 64.4837 58.2367 64.8601 58.2367 65.2515C58.2367 67.1011 59.6914 68.6168 61.5157 68.7126C61.3944 69.0651 61.3285 69.443 61.3285 69.8363C61.3285 71.7457 62.8819 73.299 64.7911 73.299H79.3099C79.8099 73.299 80.2651 73.2378 80.6846 73.133V76.805C80.6846 77.2709 80.2925 77.6644 79.8285 77.6644H52.6843C52.9142 76.8458 53.0399 75.9839 53.0399 75.0927C53.0399 69.8431 48.7692 65.5723 43.5198 65.5723C42.5562 65.5723 41.6259 65.7174 40.7487 65.985V57.2487C40.7487 56.6015 40.224 56.0769 39.5768 56.0769C38.9296 56.0769 38.4049 56.6015 38.4049 57.2487V67.0694C35.7592 68.7625 34.0001 71.7252 34.0001 75.0928C34.0001 80.3442 38.2707 84.6165 43.5201 84.6165C46.9728 84.6165 50.0018 82.7678 51.671 80.0083H79.8288C81.5932 80.0083 83.0287 78.5714 83.0287 76.8051V71.9802C83.2875 71.7952 83.5349 71.6055 83.7747 71.4206C84.8096 70.6231 85.7033 69.9344 87.1264 69.9344H91.5184C92.8868 69.9344 94.0002 68.8225 94.0002 67.4559V56.4011C94.0001 55.0325 92.8868 53.9192 91.5183 53.9192ZM64.5171 45.9807L61.34 43.9936C60.96 43.756 60.4778 43.7559 60.0975 43.9934L56.9168 45.9814V37.7274H64.5171V45.9807ZM43.5201 82.2727C39.5631 82.2727 36.3438 79.0518 36.3438 75.0928C36.3438 71.1356 39.5631 67.9162 43.5201 67.9162C47.4772 67.9162 50.6965 71.1356 50.6965 75.0928C50.6965 79.0518 47.4772 82.2727 43.5201 82.2727ZM91.6563 67.4559C91.6563 67.5277 91.5919 67.5907 91.5183 67.5907H87.1263C84.9048 67.5907 83.5444 68.639 82.344 69.5641C81.3354 70.3414 80.5387 70.9553 79.31 70.9553H64.7913C64.1744 70.9553 63.6725 70.4534 63.6725 69.8364C63.6725 69.2194 64.1744 68.7175 64.7913 68.7175H68.6812C69.3285 68.7175 69.8531 68.1929 69.8531 67.5457C69.8531 66.8984 69.3285 66.3738 68.6812 66.3738H61.6994C61.0824 66.3738 60.5806 65.8705 60.5806 65.2516C60.5806 64.6346 61.0826 64.1327 61.6994 64.1327H68.6812C69.3285 64.1327 69.8531 63.608 69.8531 62.9608C69.8531 62.3136 69.3285 61.7889 68.6812 61.7889H58.1121C57.4952 61.7889 56.9933 61.287 56.9933 60.67C56.9933 60.053 57.4952 59.5511 58.1121 59.5511H68.6812C69.3285 59.5511 69.8531 59.0265 69.8531 58.3793C69.8531 57.732 69.3285 57.2074 68.6812 57.2074H61.6994C61.0824 57.2074 60.5806 56.7039 60.5806 56.0852C60.5806 55.4682 61.0826 54.9664 61.6994 54.9664H74.7753H77.3187H79.0176C79.6649 54.9664 80.1895 54.4418 80.1895 53.7945C80.1895 53.1473 79.6649 52.6227 79.0176 52.6227H77.3187H74.7753C73.7034 52.6227 72.7639 51.9794 72.3814 50.9831C72.1585 50.4039 72.2192 50.0737 72.2825 49.98C72.346 49.886 72.5749 49.8219 72.8669 49.8164H76.491H79.449C81.4251 49.8559 82.8082 51.3207 84.2723 52.8713C85.804 54.4935 87.3876 56.171 89.7647 56.2621C89.7796 56.2627 89.7946 56.263 89.8096 56.263H91.5185C91.5933 56.263 91.6565 56.3262 91.6565 56.401V67.4559H91.6563Z" fill="white"/>
<path d="M39.5771 53.1543C40.2243 53.1543 40.749 52.6264 40.749 51.9791C40.749 51.3319 40.2243 50.8073 39.5771 50.8073C38.9299 50.8073 38.4052 51.3319 38.4052 51.9791V51.9858C38.4052 52.6329 38.9299 53.1543 39.5771 53.1543Z" fill="white"/>
</g>
<defs>
<filter id="filter0_d" x="6.10352e-05" y="0" width="127" height="127" filterUnits="userSpaceOnUse" color-interpolation-filters="sRGB">
<feFlood flood-opacity="0" result="BackgroundImageFix"/>
<feColorMatrix in="SourceAlpha" type="matrix" values="0 0 0 0 0 0 0 0 0 0 0 0 0 0 0 0 0 0 127 0"/>
<feOffset dy="4"/>
<feGaussianBlur stdDeviation="2"/>
<feColorMatrix type="matrix" values="0 0 0 0 0 0 0 0 0 0 0 0 0 0 0 0 0 0 0.25 0"/>
<feBlend mode="normal" in2="BackgroundImageFix" result="effect1_dropShadow"/>
<feBlend mode="normal" in="SourceGraphic" in2="effect1_dropShadow" result="shape"/>
</filter>
<clipPath id="clip0">
<rect width="60" height="60" fill="white" transform="translate(34.0001 30)"/>
</clipPath>
</defs>
</svg>
