<svg width="127" height="127" viewBox="0 0 127 127" fill="none" xmlns="http://www.w3.org/2000/svg">
<g filter="url(#filter0_d)">
<rect x="4.00006" width="119" height="119" rx="59.5" fill="#6492BD"/>
<rect x="4.50006" y="0.5" width="118" height="118" rx="59" stroke="white"/>
</g>
<g clip-path="url(#clip0)">
<path d="M51.7719 56.0313L51.7698 56.0695C51.6219 58.6587 53.0723 61.0843 55.4657 62.2472L55.4903 62.2592C56.3341 62.6629 57.0257 63.3283 57.4621 64.1558L57.4719 64.1738C58.6779 66.4701 61.1722 67.8621 63.8313 67.7225L63.8717 67.7203C64.836 67.6663 65.7933 67.915 66.6093 68.4321C68.8609 69.8405 71.7191 69.8405 73.9707 68.4321C74.7867 67.915 75.744 67.6663 76.7083 67.7203L76.7487 67.7225C79.4034 67.8632 81.901 66.4701 83.1098 64.17L83.1157 64.1574C83.5537 63.3278 84.247 62.6612 85.0936 62.2571L85.1132 62.2472C87.5066 61.0838 88.9575 58.6587 88.8092 56.0689L88.807 56.0329C88.7579 55.1209 89.011 54.2182 89.5281 53.4649C91.0166 51.294 91.0166 48.4315 89.5286 46.2601C89.0121 45.5074 88.7579 44.6052 88.807 43.6932L88.8092 43.655C88.9575 41.0652 87.5066 38.6401 85.111 37.4761L85.0892 37.4652C84.247 37.0627 83.557 36.4005 83.1201 35.5752L83.1076 35.5507C81.901 33.2543 79.4034 31.8629 76.7487 32.002L76.7078 32.0042C75.744 32.0582 74.7867 31.8094 73.9713 31.2923H73.9702C71.7185 29.884 68.8604 29.884 66.6088 31.2923C65.7928 31.8089 64.8355 32.0576 63.8711 32.0036L63.8308 32.0014C61.1755 31.8607 58.6784 33.2538 57.4725 35.5496L57.4632 35.5665C57.0263 36.3956 56.3341 37.0616 55.4892 37.4658L55.4663 37.4767C53.0728 38.6396 51.6219 41.0652 51.7703 43.655L51.7725 43.691C51.8216 44.603 51.5685 45.5057 51.0514 46.2584C49.5629 48.4299 49.5629 51.293 51.0514 53.4638C51.5679 54.2166 51.8216 55.1193 51.7719 56.0313ZM52.8901 47.5272C53.6881 46.3653 54.0792 44.9723 54.0028 43.565L54.0007 43.5268C53.9221 41.8108 54.8854 40.217 56.4405 39.4878L56.4595 39.4785C57.7354 38.8676 58.7799 37.8618 59.4388 36.6105L59.4497 36.5898C60.251 35.0636 61.9293 34.1385 63.7119 34.2334L63.7511 34.2351C65.1775 34.3152 66.5929 33.9476 67.7995 33.1829C69.3229 32.23 71.256 32.23 72.7794 33.1829C73.986 33.9465 75.4014 34.3147 76.8272 34.2356L76.8665 34.2334C78.6578 34.1396 80.3279 35.0636 81.127 36.5854L81.1418 36.6132C81.8007 37.8629 82.8441 38.867 84.1183 39.4774L84.1368 39.4867C85.7165 40.2547 86.6754 41.8403 86.5788 43.5274L86.5766 43.5672C86.5003 44.9744 86.8919 46.367 87.6899 47.5288C88.6543 48.9355 88.6537 50.79 87.6888 52.1962C86.8914 53.3586 86.5003 54.7517 86.5766 56.1589L86.5788 56.1966C86.6754 57.8836 85.7165 59.4698 84.1363 60.2383L84.1199 60.246C82.843 60.858 81.7974 61.8649 81.1379 63.1183L81.1298 63.1347C80.3279 64.6609 78.6523 65.5865 76.8671 65.491L76.8283 65.4889C75.402 65.4092 73.986 65.7774 72.7789 66.5416C71.256 67.4939 69.3229 67.4939 67.8 66.5416C66.7026 65.8461 65.4295 65.4774 64.1302 65.4785C64.0042 65.4785 63.8777 65.4818 63.7511 65.4889L63.7119 65.4905C61.9528 65.6023 60.2886 64.6816 59.4481 63.132L59.4366 63.1107C58.7788 61.8616 57.7359 60.858 56.4623 60.2476L56.4415 60.2373C54.8614 59.4693 53.9025 57.8831 53.9996 56.1966L54.0017 56.1567C54.0776 54.7495 53.6859 53.3564 52.8885 52.1951C51.9247 50.7884 51.9252 48.9339 52.8901 47.5282V47.5272Z" fill="white"/>
<path d="M63.0819 61.4106C63.605 61.7373 64.2939 61.5775 64.6206 61.0544L77.8538 39.8549C78.0698 39.5162 78.0878 39.0874 77.9001 38.7324C77.7125 38.3767 77.3482 38.1498 76.9467 38.1373C76.5452 38.1247 76.1678 38.3287 75.9583 38.6718L62.7257 59.8713C62.399 60.395 62.5583 61.0839 63.0819 61.4106Z" fill="white"/>
<path d="M64.2677 49.9174C66.9878 49.9174 69.2013 47.3936 69.2013 44.2916C69.2013 41.1896 66.9878 38.6664 64.2677 38.6664C61.5475 38.6664 59.3346 41.1896 59.3346 44.2916C59.3346 47.3936 61.5475 49.9174 64.2677 49.9174ZM64.2677 40.9005C65.7562 40.9005 66.9671 42.4218 66.9671 44.2916C66.9671 46.1614 65.7562 47.6832 64.2677 47.6832C62.7797 47.6832 61.5688 46.1609 61.5688 44.2916C61.5688 42.4224 62.7797 40.9005 64.2677 40.9005Z" fill="white"/>
<path d="M71.3782 55.4341C71.3782 58.5361 73.5911 61.0593 76.3112 61.0593C79.0314 61.0593 81.2448 58.5355 81.2448 55.4341C81.2448 52.3332 79.032 49.8088 76.3118 49.8088C73.5911 49.8088 71.3782 52.3315 71.3782 55.4341ZM79.0107 55.4341C79.0107 57.3039 77.7998 58.8251 76.3112 58.8251C74.8233 58.8251 73.6124 57.3039 73.6124 55.4341C73.6124 53.5643 74.8233 52.043 76.3112 52.043C77.7998 52.043 79.0107 53.5632 79.0107 55.4341Z" fill="white"/>
<path d="M93.8552 73.9837C92.3759 71.3585 89.0956 70.3587 86.4038 71.7125L77.6531 75.847C76.4449 73.6003 74.1273 72.1701 71.5768 72.0981L63.4986 71.8756C62.2195 71.839 60.9645 71.5145 59.8272 70.9276L59.0052 70.5016C54.7965 68.3078 49.78 68.3132 45.5756 70.5158L45.6269 68.6536C45.6438 68.0367 45.1578 67.5229 44.5409 67.506L35.6828 67.2621C35.0659 67.2452 34.5526 67.7312 34.5357 68.3481L34.0006 87.7875C33.9837 88.4044 34.4697 88.9182 35.0866 88.9351L43.9447 89.1789H43.9758C44.5807 89.1784 45.0755 88.6968 45.0924 88.0924L45.1175 87.1624L47.4187 85.9302C48.322 85.4442 49.3785 85.3286 50.3652 85.6079L64.1068 89.4647C64.1308 89.4718 64.1548 89.4773 64.1793 89.4827C65.1726 89.6906 66.185 89.7947 67.2001 89.7942C69.3491 89.7953 71.4731 89.3322 73.4264 88.4355C73.4744 88.4137 73.5207 88.3886 73.5649 88.3602L93.4892 75.4717C93.9861 75.151 94.1464 74.4981 93.8552 73.9837ZM36.2648 86.732L36.7382 69.5269L43.3633 69.709L42.8893 86.9148L36.2648 86.732ZM72.4195 86.4391C69.9928 87.5344 67.2824 87.8366 64.6741 87.3031L50.9691 83.4571C49.4271 83.0208 47.7754 83.2019 46.3644 83.9606L45.1884 84.59L45.5036 73.1503C49.2296 70.6718 54.0089 70.417 57.9776 72.4848L58.7996 72.9108C60.2363 73.6527 61.8214 74.0623 63.4375 74.1087L71.5157 74.3312C73.7847 74.3961 75.7118 76.0117 76.1722 78.235L64.1395 77.9039C63.5226 77.887 63.0094 78.373 62.9924 78.9899C62.9755 79.6068 63.4615 80.1206 64.0784 80.1375L77.3575 80.503H77.3891C77.9934 80.5024 78.4882 80.0208 78.5051 79.4164C78.5187 78.931 78.4822 78.445 78.3971 77.9672L87.3708 73.7263L87.397 73.7137C88.6701 73.069 90.2099 73.2845 91.2566 74.2537L72.4195 86.4391Z" fill="white"/>
</g>
<defs>
<filter id="filter0_d" x="6.10352e-05" y="0" width="127" height="127" filterUnits="userSpaceOnUse" color-interpolation-filters="sRGB">
<feFlood flood-opacity="0" result="BackgroundImageFix"/>
<feColorMatrix in="SourceAlpha" type="matrix" values="0 0 0 0 0 0 0 0 0 0 0 0 0 0 0 0 0 0 127 0"/>
<feOffset dy="4"/>
<feGaussianBlur stdDeviation="2"/>
<feColorMatrix type="matrix" values="0 0 0 0 0 0 0 0 0 0 0 0 0 0 0 0 0 0 0.25 0"/>
<feBlend mode="normal" in2="BackgroundImageFix" result="effect1_dropShadow"/>
<feBlend mode="normal" in="SourceGraphic" in2="effect1_dropShadow" result="shape"/>
</filter>
<clipPath id="clip0">
<rect width="60" height="60" fill="white" transform="translate(34.0001 30)"/>
</clipPath>
</defs>
</svg>
