<svg width="60" height="65" viewBox="0 0 60 65" fill="none" xmlns="http://www.w3.org/2000/svg">
<path d="M26.4883 16.4H33.5923L32.3923 38.864H27.6403L26.4883 16.4ZM30.0403 50.336C28.9203 50.336 27.9923 49.984 27.2563 49.28C26.5203 48.544 26.1523 47.648 26.1523 46.592C26.1523 45.536 26.5203 44.656 27.2563 43.952C27.9923 43.248 28.9203 42.896 30.0403 42.896C31.1283 42.896 32.0243 43.248 32.7283 43.952C33.4643 44.656 33.8323 45.536 33.8323 46.592C33.8323 47.648 33.4643 48.544 32.7283 49.28C32.0243 49.984 31.1283 50.336 30.0403 50.336Z" fill="#BA281C"/>
<circle cx="30" cy="32" r="28" stroke="#BA281C" stroke-width="4"/>
</svg>
