<svg width="260" height="69" viewBox="0 0 260 69" fill="none" xmlns="http://www.w3.org/2000/svg">
<g clip-path="url(#clip0)">
<path fill-rule="evenodd" clip-rule="evenodd" d="M102.842 68.9937C101.104 68.7285 107.307 62.8822 122.977 52.5913L136.472 44.4595L140.424 41.8205L140.799 42.2624L142.263 43.4241L138.048 46.2778C135.884 47.692 126.867 54.5105 125.004 55.849C112.122 65.1046 104.393 69.2209 102.842 68.9937ZM107.369 65.698C108.445 65.6096 113.485 62.2761 120.939 57.4147C126.992 53.412 130.569 50.5078 129.493 50.5962C128.405 50.6593 122.965 54.0055 117.5 57.5915C111.934 61.7332 106.281 65.7612 107.369 65.698ZM161.61 30.3804L161.16 29.0041L160.747 28.2465L161.397 27.8172C184.997 11.4526 202.794 0.0757564 204.057 -5.26429e-06C205.108 -0.0505131 194.44 7.90447 165.612 27.6783L161.61 30.3804Z" fill="#5884AD"/>
<path fill-rule="evenodd" clip-rule="evenodd" d="M218.427 56.2532V35.9238C218.427 34.6106 218.802 33.2216 219.54 31.7695C220.29 30.2796 221.454 29.0295 223.004 28.0067C224.593 26.9587 226.419 26.441 228.482 26.441C230.533 26.441 232.359 26.9082 233.948 27.8678C235.536 28.8148 236.774 30.1154 237.649 31.7569C238.512 33.3858 238.95 35.0399 238.95 36.7319C238.95 38.6639 238.537 40.419 237.687 41.9974C236.837 43.5884 235.573 44.8637 233.935 45.8486C232.284 46.8461 230.521 47.3386 228.645 47.3386C226.156 47.3386 223.98 46.4926 222.141 44.8258L221.954 44.649V41.0882L222.942 42.212C223.73 43.1212 224.618 43.7651 225.618 44.1818C226.644 44.5859 227.782 44.8006 229.07 44.8006C229.67 44.8006 230.271 44.6995 230.858 44.4849C231.446 44.2828 232.047 43.9672 232.659 43.5379C233.785 42.7802 234.66 41.7827 235.286 40.5326C235.536 40.0023 235.736 39.371 235.886 38.6639C236.036 37.9567 236.111 37.2244 236.111 36.492C236.111 35.6839 235.936 34.8758 235.598 34.055C235.311 33.209 234.861 32.4261 234.223 31.6433C233.61 30.8983 232.797 30.2669 231.771 29.7492C230.783 29.2441 229.633 28.979 228.32 28.979C226.381 28.979 224.743 29.7113 223.392 31.2139C222.779 31.8706 222.279 32.6029 221.916 33.3984L221.191 35.9743V56.2532H218.427ZM72.7766 56.1396C71.7635 56.1396 70.763 56.0385 69.7625 55.8618C68.762 55.685 67.7865 55.4198 66.8235 55.0536L66.4483 54.9147L66.5233 52.1494L67.2612 52.4272C68.0992 52.7303 69.0371 52.9955 70.1002 53.2227C71.1507 53.4374 72.1012 53.551 72.9517 53.551C75.3154 53.551 77.2039 52.9197 78.6671 51.7075C80.0678 50.5458 80.8308 48.576 80.8308 45.6339V45.4066L80.393 45.7855C78.9047 46.8209 77.1789 47.3259 75.2153 47.3259C73.7521 47.3259 72.4764 47.1618 71.4134 46.8209C70.3253 46.4673 69.2873 45.8107 68.2993 44.8889C67.2987 43.9419 66.5734 42.8434 66.1607 41.5807C65.7354 40.3432 65.5353 38.9416 65.5353 37.3633V26.8324H68.2617V37.2496C68.2617 37.9567 68.3243 38.7017 68.4618 39.472C68.5994 40.2549 68.7745 40.8357 68.9621 41.2524C69.3123 41.9721 69.6625 42.4898 70.0001 42.8307C70.2002 43.058 70.638 43.399 71.3633 43.8788C71.8886 44.2071 72.4764 44.447 73.1017 44.5859C73.7646 44.7248 74.465 44.7879 75.2153 44.7879C76.466 44.7879 77.6791 44.4091 78.8547 43.6389C80.2179 42.7297 80.8308 41.6438 80.8308 40.3811V26.8324H83.5196V46.2905C83.5196 48.4371 83.0319 50.2933 82.0314 51.8211C81.0434 53.3364 79.7302 54.4349 78.1043 55.1294C76.5035 55.7986 74.7276 56.1396 72.7766 56.1396ZM30.0419 47.3386C27.9033 47.3386 26.0024 46.8082 24.3765 45.735C22.7632 44.6743 21.55 43.2601 20.7496 41.5049C20.3619 40.6589 20.1118 39.7877 19.9742 38.9038C19.8367 38.0325 19.7741 36.9845 19.7741 35.7597C19.7741 34.7621 19.9492 33.8151 20.2994 32.9312C20.6371 32.06 21.0998 31.2518 21.6876 30.5068C22.2504 29.7871 22.8507 29.1684 23.476 28.6759C24.1014 28.1709 24.8017 27.7542 25.5771 27.4132C27.0029 26.7693 28.3786 26.441 29.7043 26.441C31.5552 26.441 33.1811 26.7566 34.5693 27.4259C35.92 28.0698 37.0456 28.9411 37.921 30.027C38.6839 31.0245 39.2717 32.1231 39.6844 33.3353C39.847 33.8025 39.9721 34.3581 40.0846 35.0273C40.2097 35.6839 40.2722 36.2521 40.2722 36.7319V47.0103H37.4958V36.6435C37.4958 35.343 37.2832 34.2192 36.858 33.2595C36.4328 32.2999 35.8199 31.5044 35.0195 30.8604C34.2066 30.2038 33.3562 29.7366 32.4807 29.4335C31.6053 29.1305 30.7048 28.979 29.7918 28.979C28.7163 28.979 27.7658 29.2063 26.9153 29.6356C26.0399 30.0901 25.1644 30.7468 24.3015 31.5928C23.6887 32.1989 23.2634 32.8807 23.0133 33.6383C22.7507 34.4338 22.6256 35.1662 22.6256 35.848C22.6256 37.2244 22.7507 38.4239 23.0008 39.4215C23.2509 40.3937 23.6887 41.265 24.339 42.0226C25.327 43.1969 26.5026 44.0051 27.9033 44.4596L29.3291 44.8006L31.13 44.6869C31.7053 44.6111 32.2681 44.4596 32.8184 44.2323C33.919 43.8157 34.932 43.1338 35.8575 42.1868L36.8205 41.2145V44.7627L36.5953 44.9395C34.5318 46.5178 32.3431 47.3386 30.0419 47.3386ZM52.8162 47.3386C50.2649 47.3386 48.0013 46.4673 46.0377 44.75C44.0492 42.9949 42.9236 40.5074 42.636 37.338C42.636 35.6334 42.8361 34.1687 43.2488 32.906C43.674 31.6306 44.3994 30.469 45.3999 29.4209C47.4134 27.3248 49.8647 26.2768 52.7287 26.2768C55.305 26.2768 57.5562 27.1102 59.4822 28.7769L59.6823 28.9537V32.6029L58.7193 31.6685C57.7813 30.7341 56.8058 30.027 55.7928 29.5472C54.7798 29.0547 53.7667 28.8148 52.7412 28.8148C51.478 28.8148 50.2524 29.1936 49.0268 29.9891C47.8011 30.7846 46.8882 31.7948 46.2628 33.0575C45.9502 33.6257 45.7376 34.2318 45.6 34.901L45.3999 36.8708L45.6875 38.6386C46.1003 40.318 46.8381 41.6059 47.8762 42.553C49.3019 43.8409 50.9403 44.4723 52.8162 44.4723C54.1169 44.4723 55.355 44.1566 56.5432 43.5252C57.7063 42.8813 58.6568 41.9847 59.3696 40.8231C60.0825 39.6866 60.4452 38.3229 60.4452 36.7319V27.9688C60.4452 25.0267 59.6698 23.0569 58.2691 21.8953C56.8058 20.6831 54.9173 20.0517 52.5661 20.0517C50.7402 20.0517 49.0643 20.3548 47.501 20.9482L46.9757 21.1503L46.0877 18.6628L46.613 18.4734C48.439 17.8041 50.365 17.4758 52.391 17.4758C54.3295 17.4758 56.1054 17.8167 57.7188 18.486C59.3446 19.1678 60.6578 20.279 61.6458 21.7942C62.6463 23.3221 63.1216 25.1783 63.1216 27.3248V36.6435C63.1216 38.8659 62.6713 40.7852 61.7459 42.3762C60.8204 43.9545 59.5697 45.1794 57.9814 46.0506C56.3931 46.9093 54.6672 47.3386 52.8162 47.3386ZM113.46 47.3386C111.322 47.3386 109.421 46.8082 107.795 45.735C106.181 44.6743 104.968 43.2601 104.168 41.5049C103.78 40.6589 103.53 39.7877 103.392 38.9038C103.255 38.0325 103.192 36.9845 103.192 35.7597C103.192 34.7621 103.367 33.8151 103.718 32.9312C104.055 32.06 104.518 31.2518 105.106 30.5068C105.669 29.7871 106.269 29.1684 106.894 28.6759C107.52 28.1709 108.22 27.7542 108.995 27.4132C110.421 26.7693 111.797 26.441 113.122 26.441C114.973 26.441 116.599 26.7566 117.987 27.4259C119.338 28.0698 120.464 28.9411 121.339 30.027C122.102 31.0245 122.69 32.1231 123.103 33.3353C123.265 33.8025 123.39 34.3581 123.503 35.0273C123.628 35.6839 123.69 36.2521 123.69 36.7319V47.0103H120.914V36.6435C120.914 35.343 120.701 34.2192 120.276 33.2595C119.851 32.2999 119.238 31.5044 118.438 30.8604C117.625 30.2038 116.774 29.7366 115.899 29.4335C115.023 29.1305 114.123 28.979 113.21 28.979C112.134 28.979 111.184 29.2063 110.334 29.6356C109.458 30.0901 108.583 30.7468 107.72 31.5928C107.107 32.1989 106.682 32.8807 106.431 33.6383C106.169 34.4338 106.044 35.1662 106.044 35.848C106.044 37.2244 106.169 38.4239 106.419 39.4215C106.669 40.3937 107.107 41.265 107.757 42.0226C108.745 43.1969 109.921 44.0051 111.322 44.4596L112.747 44.8006L114.548 44.6869C115.124 44.6111 115.686 44.4596 116.237 44.2323C117.337 43.8157 118.35 43.1338 119.276 42.1868L120.239 41.2145V44.7627L120.014 44.9395C117.95 46.5178 115.761 47.3386 113.46 47.3386ZM147.928 47.3386C146.077 47.3386 144.351 46.9093 142.775 46.0506C141.174 45.1794 139.924 43.9545 138.998 42.3762C138.073 40.7852 137.623 38.8659 137.623 36.6435V27.1733C137.623 25.0267 138.11 23.1706 139.098 21.6301C140.086 20.1275 141.4 19.0163 143.038 18.3345C144.639 17.6526 146.415 17.3243 148.353 17.3243C150.379 17.3243 152.305 17.6526 154.131 18.3218L154.669 18.5112L153.781 20.9987L153.243 20.7967C151.68 20.2032 150.004 19.9002 148.191 19.9002C145.827 19.9002 143.938 20.5315 142.475 21.7437C141.074 22.9054 140.312 24.8752 140.312 27.8047V36.7319C140.312 38.3229 140.674 39.6866 141.375 40.8231C142.1 41.9847 143.038 42.8813 144.214 43.5252C145.389 44.1566 146.627 44.4723 147.928 44.4723C149.804 44.4723 151.455 43.8157 152.931 42.4898C153.631 41.8458 154.181 41.1135 154.581 40.2927C154.782 39.8887 154.944 39.4341 155.069 38.929L155.344 37.2623L155.169 35.0525C155.057 34.4212 154.832 33.7898 154.481 33.1332C153.856 31.8706 152.956 30.8604 151.78 30.0901C151.205 29.7113 150.592 29.4209 149.942 29.2063C149.291 28.9916 148.653 28.8906 148.016 28.8906C146.952 28.8906 145.939 29.1179 144.976 29.5851C144.013 30.0396 143.025 30.7594 142.025 31.7443L141.074 32.6787V29.0295L141.262 28.8527C143.188 27.186 145.452 26.3526 148.016 26.3526C150.88 26.3526 153.343 27.4132 155.344 29.4967C156.307 30.5068 157.008 31.719 157.458 33.1332C157.896 34.5348 158.108 36.0627 158.108 37.6916C157.958 39.2699 157.621 40.5958 157.07 41.7196C156.507 42.8308 155.732 43.8409 154.732 44.75C152.743 46.4673 150.479 47.3386 147.928 47.3386ZM206.371 47.3386C203.294 47.3386 200.68 46.341 198.542 44.3334C197.491 43.3232 196.666 42.1994 196.09 40.9493C195.503 39.6866 195.215 38.3356 195.215 36.8835C195.215 35.0652 195.715 33.3353 196.703 31.719C197.691 30.0902 198.992 28.8148 200.605 27.8678C202.219 26.9082 204.032 26.441 206.033 26.441C208.072 26.441 209.973 26.9082 211.711 27.8299C213.437 28.7517 214.725 29.9134 215.551 31.3402L215.813 31.8074L200.655 41.6312L198.979 39.4594L211.736 31.2139L211.086 30.5573C210.673 30.2417 210.185 29.9765 209.635 29.7492C208.534 29.2947 207.359 29.0674 206.108 29.0674C204.27 29.0674 202.619 29.5977 201.168 30.671C200.105 31.4539 199.28 32.5398 198.704 33.9919L198.229 35.4945V36.1006L198.066 36.9971L198.467 39.371C198.729 40.1538 199.13 40.9115 199.68 41.6564C200.405 42.654 201.443 43.4621 202.819 44.0934L204.27 44.649L206.046 44.8763L207.734 44.7374C209.36 44.4723 210.723 43.7904 211.836 42.7297C213.349 41.2903 214.2 39.4594 214.412 37.1991L214.462 36.6814H217.176V37.2496C217.176 38.7901 216.901 40.1791 216.326 41.4165C215.751 42.6287 214.9 43.7146 213.787 44.6743C211.661 46.4547 209.185 47.3386 206.371 47.3386ZM249.718 47.3386C247.567 47.3386 245.679 46.8082 244.053 45.735C242.439 44.6743 241.226 43.2601 240.426 41.5049C240.038 40.6589 239.776 39.7877 239.638 38.9038C239.513 38.0325 239.45 36.9845 239.45 35.7597C239.45 34.7621 239.625 33.8151 239.976 32.9312C240.313 32.06 240.776 31.2518 241.351 30.5068C241.927 29.7871 242.514 29.1684 243.152 28.6759C243.778 28.1709 244.478 27.7542 245.241 27.4132C246.667 26.7693 248.055 26.441 249.381 26.441C251.231 26.441 252.857 26.7566 254.233 27.4259C255.596 28.0698 256.722 28.9411 257.585 30.027C258.36 31.0245 258.948 32.1231 259.361 33.3353C259.511 33.8025 259.648 34.3581 259.761 35.0273C259.873 35.6839 259.936 36.2521 259.936 36.7319V47.0103H257.172V36.6435C257.172 35.343 256.947 34.2192 256.522 33.2595C256.097 32.2999 255.496 31.5044 254.696 30.8604C253.87 30.2038 253.02 29.7366 252.157 29.4335C251.282 29.1305 250.381 28.979 249.456 28.979C248.393 28.979 247.442 29.2063 246.592 29.6356C245.704 30.0901 244.841 30.7468 243.978 31.5928C243.365 32.1989 242.94 32.8807 242.69 33.6383C242.427 34.4338 242.302 35.1662 242.302 35.848C242.302 37.2244 242.427 38.4239 242.677 39.4215C242.927 40.3937 243.365 41.265 244.015 42.0226C244.991 43.1969 246.179 44.0051 247.567 44.4596L248.993 44.8006L250.794 44.6869C251.382 44.6111 251.944 44.4596 252.482 44.2323C253.583 43.8157 254.596 43.1338 255.534 42.1868L256.497 41.2145V44.7627L256.272 44.9395C254.196 46.5178 252.007 47.3386 249.718 47.3386ZM191.238 47.0987C189.575 47.0987 188.149 46.9471 186.948 46.6567C185.735 46.3537 184.572 45.7855 183.459 44.9773C182.146 44.0303 181.158 42.9823 180.52 41.8206C179.769 40.4569 179.407 38.8659 179.407 37.0476C179.407 34.7495 179.957 32.7923 181.108 31.2013C182.233 29.6482 183.697 28.5118 185.497 27.8047C187.261 27.0976 189.087 26.7566 190.975 26.7566H193.677V29.5977L193.064 29.5346C192.263 29.4588 191.538 29.4209 190.888 29.4209C188.199 29.4209 186.185 30.0649 184.785 31.2518C183.034 32.7797 182.171 34.699 182.171 37.0476C182.171 39.5477 182.934 41.3155 184.397 42.4898C185.885 43.6768 188.074 44.3081 191.063 44.3081H193.677V46.985L191.238 47.0987ZM-0.0986633 47.0103V27.691C-0.0986633 25.8349 0.113945 24.2312 0.564178 22.9054C1.01441 21.5796 1.73979 20.481 2.75281 19.6603C4.70382 18.044 7.00501 17.2485 9.63137 17.2485C12.4203 17.2485 14.7465 18.0314 16.535 19.635C18.3484 21.2765 19.2238 23.663 19.2238 26.6809C19.2238 29.3704 18.3484 31.5549 16.56 33.1711C15.722 33.9666 14.734 34.5853 13.6084 35.0147C12.4703 35.444 11.1947 35.646 9.79396 35.646H3.42816V33.0196H9.70641C11.5699 33.0196 13.1207 32.4261 14.3963 31.2266C15.647 30.0523 16.2973 28.4992 16.2973 26.5293C16.2973 25.7465 16.1347 24.8373 15.8096 23.7893C15.5094 22.8297 14.8966 21.9205 13.9086 21.0871C12.9956 20.3043 11.6199 19.8749 9.70641 19.8749C8.24316 19.8749 7.09256 20.0896 6.21711 20.481C5.35416 20.8725 4.67881 21.4786 4.17855 22.2993C3.29059 23.7135 2.82785 25.4939 2.82785 27.691V47.0103H-0.0986633ZM91.874 47.0103C90.1356 47.0103 88.6473 46.5936 87.4342 45.7223C86.121 44.7879 85.5457 43.2096 85.5457 41.1892C85.5457 40.318 85.7458 39.5351 86.146 38.8406C86.5587 38.1714 87.1215 37.6158 87.8344 37.1991C89.1476 36.4036 90.9485 35.7723 93.2122 35.2925C95.5884 34.7242 97.1892 34.2697 98.0272 33.9161C98.4524 33.7267 98.7275 33.4615 98.8776 33.1585C99.0527 32.8049 99.1527 32.3756 99.1527 31.82C99.1527 31.0877 98.9026 30.5447 98.4274 30.128C97.9396 29.6987 97.2517 29.4588 96.2762 29.4588H86.8464V26.8829H96.5264C98.3023 26.8829 99.753 27.4511 100.804 28.6381C101.654 29.5977 102.079 30.7089 102.092 31.9463C102.079 34.156 100.979 35.7218 98.8901 36.6057C97.8646 37.0855 96.2637 37.5274 94.1626 37.9189C93.0871 38.1588 92.1866 38.3987 91.4738 38.626C90.7484 38.8659 90.1481 39.1184 89.6478 39.3962C88.8224 39.8508 88.3972 40.5705 88.3972 41.6691C88.3972 42.5782 88.7098 43.2222 89.2976 43.6515C89.9104 44.1187 90.8609 44.3839 92.2116 44.3839H102.092V47.0103H91.874ZM168.701 47.0103C166.525 47.0103 164.599 46.3158 162.961 44.9142C162.11 44.1945 161.447 43.3232 160.985 42.3257C160.51 41.3155 160.272 40.1791 160.272 38.929V26.8324H162.961V38.285C162.961 39.7119 163.248 40.8357 163.774 41.7069C164.336 42.6035 165.024 43.2601 165.875 43.7146C166.725 44.1566 167.663 44.3839 168.689 44.3839H174.592V26.8324H177.356L177.406 47.0103H168.701Z" fill="#5884AD"/>
<path fill-rule="evenodd" clip-rule="evenodd" d="M29.1165 33.4109C30.1295 33.6003 30.8049 34.5852 30.6173 35.6207C30.4297 36.6434 29.4417 37.3253 28.4287 37.1359C27.4156 36.9465 26.7403 35.949 26.9279 34.9262C27.1155 33.8908 28.1035 33.2215 29.1165 33.4109Z" fill="#BA281C"/>
<path fill-rule="evenodd" clip-rule="evenodd" d="M249.731 36.4288C250.756 36.6182 251.419 37.6157 251.232 38.6385C251.044 39.6613 250.068 40.3432 249.043 40.1538C248.03 39.9644 247.355 38.9795 247.542 37.944C247.73 36.9213 248.718 36.2394 249.731 36.4288Z" fill="#BA281C"/>
<path fill-rule="evenodd" clip-rule="evenodd" d="M227.219 33.4109C228.232 33.6003 228.908 34.5852 228.72 35.6207C228.532 36.6434 227.544 37.3253 226.531 37.1359C225.518 36.9465 224.843 35.949 225.03 34.9262C225.218 33.8908 226.206 33.2215 227.219 33.4109Z" fill="#BA281C"/>
<path fill-rule="evenodd" clip-rule="evenodd" d="M54.6297 37.1864C55.6427 37.3758 56.3181 38.3733 56.1305 39.3961C55.9304 40.4315 54.9549 41.1007 53.9418 40.9113C52.9163 40.7219 52.2409 39.737 52.441 38.7016C52.6286 37.6788 53.6042 36.997 54.6297 37.1864Z" fill="#BA281C"/>
<path fill-rule="evenodd" clip-rule="evenodd" d="M113.16 37.1864C114.173 37.3758 114.848 38.3733 114.661 39.3961C114.473 40.4315 113.485 41.1007 112.472 40.9113C111.459 40.7219 110.784 39.737 110.971 38.7016C111.159 37.6788 112.147 36.997 113.16 37.1864Z" fill="#BA281C"/>
<path fill-rule="evenodd" clip-rule="evenodd" d="M145.802 37.7671C146.815 37.9565 147.49 38.9414 147.303 39.9769C147.115 40.9996 146.127 41.6815 145.114 41.4921C144.101 41.3027 143.426 40.3052 143.613 39.2824C143.801 38.247 144.789 37.5777 145.802 37.7671Z" fill="#BA281C"/>
<path fill-rule="evenodd" clip-rule="evenodd" d="M97.6646 59.2331C83.1071 59.1195 63.9096 52.4777 53.1666 39.7371C52.9915 39.535 53.079 39.2194 53.3292 39.131L55.3052 38.4365C55.4428 38.386 55.6053 38.4239 55.7054 38.5375C65.5605 49.3209 82.6944 55.142 95.8637 55.4198C109.096 55.7102 117.8 50.5836 111.972 39.6739C111.847 39.434 111.985 39.1562 112.235 39.1184L114.098 38.8153C114.248 38.7901 114.398 38.8658 114.486 39.0047C122.553 52.806 112.122 59.3467 97.6646 59.2331Z" fill="white"/>
<path fill-rule="evenodd" clip-rule="evenodd" d="M97.6645 58.286C84.2076 58.1849 66.7485 52.4018 55.9429 41.3911L54.4421 39.737L55.2801 39.4465L56.981 41.1891C67.2363 50.9118 83.3196 56.1015 95.8511 56.3667C108.683 56.6444 117.85 51.6442 113.785 41.3532L113.123 39.939L113.848 39.8127L114.911 41.8583C120.089 53.2983 110.609 58.387 97.6645 58.286Z" fill="#CCCCCC"/>
<path fill-rule="evenodd" clip-rule="evenodd" d="M125.867 61.7835C124.166 61.7709 118.413 61.6446 118.138 61.6572C117.637 61.6572 117.475 60.9754 117.925 60.7481L121.027 59.2455C121.102 59.2202 121.177 59.195 121.252 59.2076C129.981 59.5738 133.133 56.6443 134.484 50.6213C137.11 38.9161 140.412 39.8126 144.751 38.7267C144.989 38.6762 145.227 38.8024 145.302 39.0297L145.927 40.7849C146.015 41.0248 145.902 41.2899 145.664 41.3783C141.275 43.1335 139.411 43.6764 138.173 50.293C136.735 57.9449 130.969 61.2658 126.354 61.7709C126.279 61.7835 126.092 61.7835 125.867 61.7835ZM121.489 55.8993C121.164 56.0635 120.776 55.7857 120.826 55.4069C121.664 49.1187 121.602 50.3182 125.767 44.2446C133.333 33.2087 124.891 21.2636 117.8 25.7588C117.725 25.8093 117.637 25.8345 117.55 25.8345L114.311 25.8598C113.885 25.8724 113.673 25.3421 113.985 25.0517C125.104 14.1925 138.786 32.2995 128.918 45.5326C123.828 52.3638 125.654 49.7879 123.966 54.523C123.916 54.6366 123.841 54.7376 123.728 54.7882L121.489 55.8993ZM236.324 51.7703C234.385 51.6188 232.622 50.5076 231.184 48.1716C231.046 47.9443 231.109 47.6539 231.321 47.515L233.422 46.1639C233.647 46.0124 233.96 46.1008 234.085 46.3407C235.811 49.6616 241.889 49.106 248.342 37.5776C248.468 37.3503 248.755 37.2746 248.98 37.4008L250.756 38.411C250.981 38.5373 251.056 38.8151 250.944 39.0423C248.167 44.4214 241.902 52.187 236.324 51.7703ZM165.687 50.0278C161.085 50.1667 157.12 48.8282 153.531 47.212C153.231 47.0731 153.156 46.669 153.406 46.4291L155.832 44.1436C155.97 44.0174 156.17 43.9795 156.345 44.0679C166.3 48.8156 176.868 45.5831 191.651 29.408C208.134 11.4146 225.768 22.5894 228.47 34.9386C228.52 35.1785 228.37 35.431 228.132 35.4942L225.881 36.0876C225.618 36.1634 225.356 35.9992 225.293 35.7341C223.78 28.8398 211.523 13.3717 194.965 31.7566C182.671 45.4316 173.366 49.7879 165.687 50.0278ZM29.9419 35.6709L27.8658 34.9007C27.6282 34.8123 27.5031 34.5471 27.5907 34.2946C29.6793 28.6251 39.697 17.9679 46.7756 26.5164C46.9507 26.7311 46.9007 27.0594 46.6631 27.2109L44.7996 28.4231C44.6245 28.5367 44.3994 28.5241 44.2368 28.3852C41.4729 25.9987 36.3202 26.1881 30.4922 35.4815C30.3796 35.6709 30.142 35.7467 29.9419 35.6709Z" fill="white"/>
<path fill-rule="evenodd" clip-rule="evenodd" d="M125.879 60.7482C125.054 60.7356 123.19 60.7104 121.489 60.6725L120.514 60.6598L121.364 60.2432L124.378 60.2179C131.232 59.7886 134.196 56.6318 135.497 50.8613C137.36 42.4897 139.436 40.9997 142.1 40.3431L144.501 39.8506L144.776 40.6335L142.275 41.6942C139.649 43.02 138.161 44.7751 137.16 50.1037C135.822 57.2253 130.494 60.2684 126.254 60.7356C126.217 60.7482 126.104 60.7482 125.879 60.7482ZM121.99 54.4853L122.115 53.6014C122.665 49.7628 122.978 50.1416 126.617 44.8383C133.896 34.219 126.892 21.1501 118.863 24.0796L117.425 24.7867L115.937 24.8119L116.574 24.2942C126.054 18.208 136.985 32.9942 128.093 44.9014C123.553 50.9876 124.353 49.8638 123.49 52.6922L123.065 53.9549L121.99 54.4853ZM236.399 50.7351C235.248 50.6467 234.123 50.129 233.072 48.9799L232.384 48.0708L233.56 47.3132L234.36 48.3486C237.137 50.6593 242.127 48.538 246.892 41.8331L248.943 38.5753L249.756 39.0425L248.83 40.6714C245.729 45.6716 240.614 51.0507 236.399 50.7351ZM165.65 48.9799C162.373 49.0809 159.409 48.3864 156.658 47.3763L154.757 46.5934L156.282 45.1413L159.909 46.4924C169.327 48.9547 179.407 44.3332 192.414 30.1152C207.271 13.8896 222.842 22.3118 226.819 32.9942L227.307 34.6357L226.144 34.9387L225.881 34.0548C223.067 26.365 210.561 12.9047 194.202 31.0496C181.996 44.6362 172.929 48.7653 165.65 48.9799ZM29.892 34.5473L28.8039 34.1432L29.6794 32.3628C32.7435 27.2363 39.6595 21.7183 44.8247 26.0115L45.5251 26.7186L44.5371 27.3499L43.474 26.6428C40.3974 25.1528 36.2078 26.2514 31.8305 31.782L29.892 34.5473Z" fill="#CCCCCC"/>
</g>
<defs>
<clipPath id="clip0">
<rect width="260" height="69" fill="white"/>
</clipPath>
</defs>
</svg>
