<svg width="32" height="32" viewBox="0 0 32 32" fill="none" xmlns="http://www.w3.org/2000/svg">
<path d="M26.6066 5.39339C23.7735 2.56029 20.0066 1 16 1C11.9932 1 8.22649 2.56029 5.39339 5.39339C2.56029 8.22649 1 11.9932 1 16C1 20.0066 2.56029 23.7735 5.39339 26.6066C8.22649 29.4397 11.9932 31 16 31C20.0066 31 23.7735 29.4397 26.6066 26.6066C29.4397 23.7735 31 20.0066 31 16C31 11.9932 29.4397 8.22649 26.6066 5.39339ZM8.51991 26.9211C9.14728 23.3089 12.2775 20.6445 16 20.6445C19.7228 20.6445 22.8527 23.3089 23.4801 26.9211C21.3503 28.3843 18.7736 29.2422 16 29.2422C13.2264 29.2422 10.6497 28.3843 8.51991 26.9211ZM11.2306 14.1172C11.2306 11.4871 13.3701 9.34778 16 9.34778C18.6299 9.34778 20.7694 11.4874 20.7694 14.1172C20.7694 16.7471 18.6299 18.8867 16 18.8867C13.3701 18.8867 11.2306 16.7471 11.2306 14.1172ZM25.0026 25.7018C24.5295 24.0202 23.59 22.4945 22.273 21.3027C21.465 20.5715 20.5454 19.9944 19.5566 19.5877C21.3437 18.422 22.5275 16.4053 22.5275 14.1172C22.5275 10.5181 19.5992 7.58997 16 7.58997C12.4008 7.58997 9.47275 10.5181 9.47275 14.1172C9.47275 16.4053 10.6565 18.422 12.4434 19.5877C11.4549 19.9944 10.535 20.5712 9.72704 21.3025C8.41028 22.4943 7.47049 24.02 6.99739 25.7016C4.39157 23.2816 2.75781 19.8283 2.75781 16C2.75781 8.69821 8.69821 2.75781 16 2.75781C23.3018 2.75781 29.2422 8.69821 29.2422 16C29.2422 19.8285 27.6084 23.2819 25.0026 25.7018Z" fill="#BA281C" stroke="#BA281C" stroke-width="0.5"/>
</svg>
